<?xml version="1.0" encoding="utf-8"?>
<!-- Generator: Adobe Illustrator 17.0.0, SVG Export Plug-In . SVG Version: 6.00 Build 0)  -->
<!DOCTYPE svg PUBLIC "-//W3C//DTD SVG 1.1//EN" "http://www.w3.org/Graphics/SVG/1.1/DTD/svg11.dtd">
<svg version="1.1" id="Capa_1" xmlns="http://www.w3.org/2000/svg" xmlns:xlink="http://www.w3.org/1999/xlink" x="0px" y="0px"
	 width="512px" height="512px" viewBox="0 0 512 512" enable-background="new 0 0 512 512" xml:space="preserve">
<g>
	<path fill="#FFFFFF" d="M458.754,342.427H53.249c-27.315,0-49.538,22.223-49.538,49.539v66.007
		c0,27.316,22.223,49.538,49.538,49.538h405.504c27.316,0,49.538-22.222,49.538-49.538v-66.007
		C508.292,364.65,486.069,342.427,458.754,342.427z M471.791,457.972c0,7.2-5.837,13.036-13.036,13.036H53.249
		c-7.2,0-13.036-5.836-13.036-13.036v-66.007c0-7.2,5.836-13.036,13.036-13.036h405.505c7.199,0,13.036,5.836,13.036,13.036V457.972
		z"/>
	<path fill="#FFFFFF" d="M458.754,507.935H53.249c-27.55,0-49.964-22.414-49.964-49.964v-66.007
		C3.286,364.414,25.699,342,53.249,342h405.504c13.325,0,25.865,5.203,35.313,14.65c9.448,9.448,14.65,21.99,14.65,35.314v66.007
		C508.717,485.521,486.303,507.935,458.754,507.935z M53.249,342.853c-27.08,0-49.112,22.031-49.112,49.112v66.007
		c0,27.08,22.031,49.112,49.112,49.112h405.504c27.08,0,49.112-22.031,49.112-49.112v-66.007c0-13.097-5.114-25.425-14.4-34.71
		c-9.286-9.286-21.614-14.401-34.71-14.401L53.249,342.853L53.249,342.853z M458.754,471.434H53.249
		c-7.423,0-13.462-6.039-13.462-13.462v-66.007c0-7.423,6.039-13.462,13.462-13.462h405.505c7.423,0,13.462,6.039,13.462,13.462
		v66.007C472.217,465.394,466.177,471.434,458.754,471.434z M53.249,379.355c-6.954,0-12.61,5.657-12.61,12.61v66.007
		c0,6.953,5.657,12.61,12.61,12.61h405.505c6.954,0,12.61-5.657,12.61-12.61v-66.007c0-6.954-5.657-12.61-12.61-12.61H53.249z"/>
</g>
<g>
	<path fill="#FFFFFF" d="M218.231,316.107c9.563,10.167,23.053,16.021,37.01,16.061c13.957,0.04,27.48-5.735,37.102-15.847
		l201.86-212.138c7.225-7.593,11.887-17.02,13.482-27.262c1.47-9.437,0.251-19.1-3.526-27.939
		c-3.776-8.841-9.913-16.401-17.748-21.866c-8.503-5.929-18.537-9.08-29.017-9.11L54.898,16.847
		c-10.482-0.03-20.534,3.062-29.069,8.943c-7.867,5.419-14.047,12.944-17.874,21.763C4.129,56.371,2.854,66.026,4.27,75.472
		c1.536,10.251,6.143,19.706,13.324,27.34L218.231,316.107z M54.794,53.348l402.495,1.157c12.735,0.037,19.25,15.289,10.471,24.514
		L265.9,291.158c-2.871,3.017-6.715,4.519-10.554,4.508s-7.674-1.534-10.528-4.568L44.182,77.802
		C35.457,68.526,42.058,53.312,54.794,53.348z"/>
	<path fill="#FFFFFF" d="M54.9,16.422l402.495,1.157c10.567,0.03,20.685,3.207,29.26,9.187c7.901,5.51,14.09,13.134,17.897,22.048
		c3.808,8.913,5.037,18.656,3.555,28.172c-1.609,10.329-6.309,19.835-13.594,27.491l-201.86,212.138
		c-9.702,10.195-23.338,16.02-37.412,15.979c-14.075-0.04-27.677-5.943-37.32-16.195L17.284,103.104
		c-7.241-7.697-11.887-17.23-13.435-27.569c-1.427-9.524-0.142-19.259,3.717-28.151c3.859-8.893,10.091-16.481,18.023-21.945
		C34.195,19.51,44.331,16.392,54.9,16.422z M255.242,331.742c13.841,0.04,27.251-5.688,36.792-15.715l201.86-212.138
		c7.164-7.529,11.788-16.877,13.37-27.034c1.457-9.359,0.249-18.939-3.496-27.707c-3.744-8.767-9.831-16.266-17.601-21.684
		c-8.432-5.88-18.382-9.004-28.775-9.033L54.898,17.273c-10.395-0.03-20.363,3.037-28.826,8.868
		c-7.801,5.373-13.93,12.836-17.725,21.582c-3.795,8.746-5.058,18.321-3.655,27.687c1.522,10.166,6.092,19.54,13.214,27.11
		l200.635,213.296C228.023,325.897,241.401,331.702,255.242,331.742z M54.795,52.922L457.29,54.08
		c6.065,0.017,11.312,3.494,13.694,9.07c2.382,5.578,1.265,11.772-2.916,16.164l-201.86,212.138
		c-2.859,3.004-6.717,4.652-10.864,4.64c-4.148-0.012-7.996-1.682-10.837-4.702L43.872,78.094
		c-4.156-4.417-5.237-10.617-2.822-16.181C43.464,56.351,48.73,52.905,54.795,52.922z M255.347,295.24
		c3.911,0.011,7.548-1.543,10.244-4.376l201.86-212.138c3.942-4.142,4.996-9.983,2.749-15.242
		c-2.246-5.258-7.194-8.536-12.913-8.552L54.792,53.775c-5.719-0.016-10.685,3.233-12.962,8.478
		c-2.276,5.246-1.256,11.093,2.662,15.258l200.636,213.295C247.808,293.654,251.437,295.229,255.347,295.24z"/>
</g>
</svg>
