<?xml version="1.0" encoding="utf-8"?>
<!-- Generator: Adobe Illustrator 17.0.0, SVG Export Plug-In . SVG Version: 6.00 Build 0)  -->
<!DOCTYPE svg PUBLIC "-//W3C//DTD SVG 1.1//EN" "http://www.w3.org/Graphics/SVG/1.1/DTD/svg11.dtd">
<svg version="1.1" id="Capa_1" xmlns="http://www.w3.org/2000/svg" xmlns:xlink="http://www.w3.org/1999/xlink" x="0px" y="0px"
	 width="512px" height="512px" viewBox="0 0 512 512" enable-background="new 0 0 512 512" xml:space="preserve">
<g>
	<path fill="#FFFFFF" d="M458.754,8.427H53.249c-27.315,0-49.538,22.223-49.538,49.539v66.007c0,27.316,22.223,49.538,49.538,49.538
		h405.504c27.316,0,49.538-22.222,49.538-49.538V57.965C508.292,30.65,486.069,8.427,458.754,8.427z M471.791,123.972
		c0,7.2-5.837,13.036-13.036,13.036H53.249c-7.2,0-13.036-5.836-13.036-13.036V57.965c0-7.2,5.836-13.036,13.036-13.036h405.505
		c7.199,0,13.036,5.836,13.036,13.036L471.791,123.972L471.791,123.972z"/>
	<path fill="#FFFFFF" d="M458.754,173.935H53.249c-27.55,0-49.964-22.414-49.964-49.964V57.965C3.286,30.414,25.699,8,53.249,8
		h405.504c13.325,0,25.865,5.203,35.313,14.65c9.448,9.448,14.65,21.989,14.65,35.314v66.007
		C508.717,151.521,486.303,173.935,458.754,173.935z M53.249,8.853c-27.08,0-49.112,22.031-49.112,49.112v66.007
		c0,27.08,22.031,49.112,49.112,49.112h405.504c27.08,0,49.112-22.031,49.112-49.112V57.965c0-13.097-5.114-25.425-14.4-34.71
		c-9.286-9.286-21.614-14.401-34.71-14.401L53.249,8.853L53.249,8.853z M458.754,137.434H53.249
		c-7.423,0-13.462-6.039-13.462-13.462V57.965c0-7.423,6.039-13.462,13.462-13.462h405.505c7.423,0,13.462,6.039,13.462,13.462
		v66.007C472.217,131.394,466.177,137.434,458.754,137.434z M53.249,45.355c-6.954,0-12.61,5.657-12.61,12.61v66.007
		c0,6.954,5.657,12.61,12.61,12.61h405.505c6.954,0,12.61-5.657,12.61-12.61V57.965c0-6.954-5.657-12.61-12.61-12.61H53.249z"/>
</g>
<g>
	<path fill="#FFFFFF" d="M293.057,204.38c-9.592-10.139-23.099-15.954-37.056-15.954s-27.464,5.814-37.056,15.954L17.696,417.098
		c-7.203,7.614-11.838,17.054-13.403,27.301c-1.443,9.441-0.196,19.1,3.606,27.929c3.801,8.83,9.96,16.373,17.811,21.815
		c8.52,5.905,18.563,9.027,29.044,9.027H457.25c10.482,0,20.525-3.121,29.044-9.027c7.852-5.442,14.009-12.984,17.811-21.815
		c3.801-8.829,5.048-18.487,3.605-27.929c-1.565-10.247-6.199-19.688-13.403-27.301L293.057,204.38z M457.249,466.668H54.752
		c-12.735,0-19.294-15.234-10.541-24.484L245.46,229.467c2.862-3.026,6.702-4.538,10.541-4.538s7.679,1.512,10.541,4.538
		L467.79,442.183C476.542,451.434,469.984,466.668,457.249,466.668z"/>
	<path fill="#FFFFFF" d="M457.249,503.594H54.752c-10.567,0-20.694-3.147-29.286-9.102c-7.917-5.487-14.128-13.093-17.96-21.996
		c-3.833-8.902-5.091-18.641-3.636-28.162c1.58-10.334,6.252-19.853,13.515-27.53l201.25-212.717
		C228.307,193.864,241.927,188,256.001,188c14.075,0,27.694,5.864,37.366,16.087l201.249,212.717
		c7.263,7.676,11.936,17.196,13.514,27.53c1.454,9.52,0.198,19.259-3.636,28.162c-3.833,8.904-10.044,16.51-17.959,21.996
		C477.945,500.447,467.818,503.594,457.249,503.594z M256.001,188.852c-13.841,0-27.235,5.767-36.747,15.821L18.005,417.391
		c-7.143,7.55-11.739,16.911-13.293,27.072c-1.431,9.363-0.194,18.94,3.576,27.696c3.769,8.756,9.878,16.237,17.663,21.633
		c8.449,5.855,18.407,8.951,28.801,8.951h402.497c10.395,0,20.354-3.095,28.801-8.951c7.785-5.395,13.893-12.876,17.663-21.632
		c3.769-8.757,5.006-18.335,3.575-27.697c-1.552-10.161-6.148-19.523-13.292-27.072L292.748,204.673
		C283.236,194.619,269.842,188.852,256.001,188.852z M457.249,467.094H54.752c-6.065,0-11.322-3.461-13.72-9.031
		c-2.398-5.571-1.299-11.768,2.87-16.173L245.15,229.173c2.85-3.012,6.704-4.671,10.851-4.671c4.148,0,8.001,1.659,10.851,4.671
		L468.099,441.89c4.168,4.405,5.267,10.602,2.869,16.173C468.57,463.633,463.314,467.094,457.249,467.094z M256.001,225.353
		c-3.911,0-7.544,1.564-10.231,4.405L44.521,442.476c-3.93,4.154-4.967,9.997-2.705,15.25c2.261,5.252,7.218,8.515,12.937,8.515
		H457.25c5.719,0,10.675-3.263,12.937-8.515c2.26-5.253,1.224-11.096-2.706-15.25L266.232,229.759
		C263.545,226.918,259.911,225.353,256.001,225.353z"/>
</g>
</svg>
