<?xml version="1.0" encoding="utf-8"?>
<!-- Generator: Adobe Illustrator 17.0.0, SVG Export Plug-In . SVG Version: 6.00 Build 0)  -->
<!DOCTYPE svg PUBLIC "-//W3C//DTD SVG 1.1//EN" "http://www.w3.org/Graphics/SVG/1.1/DTD/svg11.dtd">
<svg version="1.1" id="Capa_1" xmlns="http://www.w3.org/2000/svg" xmlns:xlink="http://www.w3.org/1999/xlink" x="0px" y="0px"
	 width="512px" height="512px" viewBox="0 0 512 512" enable-background="new 0 0 512 512" xml:space="preserve">
<g>
	<g>
		<g>
			<path fill="#FFFFFF" d="M403.212,67.43h-42.883c-10.047-6.565-20.987-11.353-31.097-14.814
				c-4.722-12.399-12.266-23.557-21.977-32.299C293.002,7.488,274.8,0.422,256,0.422s-37.002,7.066-51.255,19.896
				c-9.711,8.741-17.256,19.901-21.977,32.299c-10.111,3.461-21.05,8.248-31.098,14.814h-42.883
				c-27.05,0-49.055,22.007-49.055,49.055v346.037c0,27.05,22.007,49.056,49.055,49.056h294.425
				c27.05,0,49.055-22.007,49.055-49.056V116.486C452.268,89.437,430.262,67.43,403.212,67.43z M214.207,73.71
				c0.414-2.152,0.969-4.247,1.643-6.279c5.963-18.001,21.683-30.863,40.15-30.863s34.187,12.861,40.15,30.863
				c0.673,2.033,1.228,4.127,1.643,6.279c0.943,4.902,4.702,8.756,9.53,10.028c17.523,4.618,31.808,11.529,40.922,19.838
				c1.437,1.31,2.75,2.654,3.922,4.031c5.781,6.789,1.013,17.227-7.904,17.227H167.738c-8.917,0-13.685-10.437-7.903-17.227
				c1.172-1.377,2.485-2.72,3.922-4.031c9.113-8.31,23.399-15.221,40.922-19.838C209.506,82.466,213.265,78.611,214.207,73.71z
				 M416.122,462.522c0,7.13-5.78,12.91-12.909,12.91H108.788c-7.13,0-12.909-5.78-12.909-12.91V116.486
				c0-7.13,5.78-12.909,12.909-12.909h13.648c-0.428,1.791-0.755,3.611-0.968,5.457c-0.982,8.502,0.404,17.121,4.008,24.923
				c3.596,7.785,9.243,14.413,16.331,19.167c7.661,5.14,16.629,7.856,25.933,7.856h176.524c9.305,0,18.272-2.717,25.933-7.856
				c7.087-4.755,12.736-11.383,16.331-19.167c3.604-7.801,4.99-16.419,4.008-24.923c-0.213-1.846-0.541-3.666-0.968-5.457h13.648
				c7.13,0,12.909,5.78,12.909,12.909L416.122,462.522L416.122,462.522L416.122,462.522z"/>
			<path fill="#FFFFFF" d="M403.212,512H108.787c-27.282,0-49.477-22.196-49.477-49.478V116.486
				c0-27.282,22.196-49.477,49.477-49.477h42.758c8.852-5.77,19.246-10.723,30.9-14.727c4.773-12.446,12.384-23.605,22.018-32.278
				C218.794,7.105,237.096,0,256,0s37.208,7.104,51.537,20.004c9.635,8.673,17.245,19.831,22.018,32.278
				c11.654,4.004,22.049,8.957,30.899,14.727h42.759c27.282,0,49.477,22.196,49.477,49.477v346.037
				C452.69,489.805,430.494,512,403.212,512z M108.788,67.852c-26.817,0-48.634,21.817-48.634,48.634v346.037
				c0,26.817,21.817,48.634,48.634,48.634h294.426c26.816,0,48.634-21.817,48.634-48.634V116.486
				c0-26.817-21.817-48.634-48.634-48.634h-43.009l-0.105-0.069c-8.862-5.791-19.293-10.759-31.003-14.767l-0.187-0.064l-0.07-0.185
				c-4.721-12.395-12.282-23.508-21.866-32.135C292.798,7.872,274.696,0.844,256,0.844c-18.695,0-36.798,7.028-50.972,19.788
				c-9.583,8.626-17.144,19.739-21.865,32.135l-0.07,0.185l-0.187,0.064c-11.71,4.008-22.141,8.977-31.004,14.767l-0.105,0.069
				H108.788z M403.212,475.854H108.788c-7.351,0-13.331-5.98-13.331-13.332V116.486c0-7.351,5.98-13.331,13.331-13.331h14.183
				l-0.124,0.52c-0.43,1.801-0.753,3.621-0.959,5.408c-0.973,8.425,0.4,16.965,3.972,24.696c3.564,7.715,9.16,14.283,16.183,18.994
				c7.591,5.093,16.477,7.784,25.698,7.784h176.524c9.221,0,18.107-2.692,25.698-7.784c7.023-4.711,12.62-11.28,16.183-18.994
				c3.572-7.731,4.945-16.271,3.972-24.696c-0.207-1.788-0.529-3.607-0.959-5.408l-0.124-0.52h14.183
				c7.351,0,13.331,5.98,13.331,13.331v346.037C416.544,469.874,410.563,475.854,403.212,475.854z M108.788,103.998
				c-6.886,0-12.487,5.602-12.487,12.487v346.037c0,6.886,5.602,12.488,12.487,12.488h294.425c6.886,0,12.487-5.602,12.487-12.488
				l0.001-346.037c0-6.886-5.603-12.487-12.487-12.487h-13.116c0.377,1.663,0.665,3.338,0.856,4.987
				c0.991,8.58-0.408,17.276-4.044,25.148c-3.628,7.855-9.327,14.543-16.479,19.341c-7.73,5.187-16.779,7.928-26.168,7.928H167.739
				c-9.388,0-18.438-2.741-26.167-7.928c-7.152-4.798-12.85-11.486-16.479-19.341c-3.637-7.872-5.035-16.568-4.043-25.147
				c0.191-1.649,0.478-3.324,0.856-4.987L108.788,103.998L108.788,103.998z M344.262,125.256H167.738
				c-4.275,0-8.043-2.407-9.832-6.281c-1.801-3.901-1.185-8.361,1.607-11.64c1.16-1.363,2.492-2.731,3.959-4.069
				c9.188-8.378,23.4-15.271,41.099-19.934c4.708-1.241,8.328-5.048,9.222-9.7c0.406-2.109,0.964-4.24,1.657-6.332
				c6.172-18.632,22.468-31.151,40.55-31.151s34.378,12.519,40.55,31.151c0.694,2.093,1.25,4.224,1.657,6.332
				c0.895,4.652,4.516,8.46,9.223,9.701c17.7,4.664,31.911,11.558,41.099,19.934c1.465,1.336,2.797,2.705,3.959,4.069
				c2.793,3.28,3.409,7.741,1.606,11.641C352.305,122.848,348.538,125.256,344.262,125.256z M256,36.99
				c-17.718,0-33.692,12.287-39.749,30.573c-0.683,2.058-1.23,4.153-1.629,6.227c-0.956,4.968-4.817,9.033-9.836,10.356
				c-17.568,4.629-31.657,11.456-40.745,19.742c-1.441,1.314-2.747,2.656-3.885,3.992c-2.578,3.027-3.146,7.141-1.484,10.74
				c1.65,3.572,5.124,5.791,9.066,5.791h176.525c3.943,0,7.417-2.219,9.066-5.791c1.663-3.598,1.094-7.714-1.483-10.74
				c-1.139-1.337-2.445-2.681-3.885-3.992c-9.088-8.286-23.177-15.112-40.745-19.742c-5.019-1.322-8.88-5.387-9.837-10.356
				c-0.399-2.073-0.947-4.167-1.629-6.227C289.691,49.276,273.718,36.99,256,36.99z"/>
		</g>
		<g>
			<path fill="#FFFFFF" d="M256,92.192c10.075,0,18.243-8.167,18.243-18.243c0-2.298-0.429-4.494-1.205-6.519
				c-2.623-6.855-9.262-11.725-17.039-11.725c-7.777,0-14.415,4.869-17.039,11.725c-0.775,2.024-1.204,4.221-1.204,6.519
				C237.757,84.025,245.924,92.192,256,92.192z"/>
			<path fill="#FFFFFF" d="M256,92.614c-10.292,0-18.665-8.373-18.665-18.665c0-2.289,0.414-4.533,1.232-6.669
				c2.746-7.175,9.753-11.996,17.433-11.996c7.681,0,14.687,4.82,17.433,11.996c0.818,2.136,1.233,4.379,1.233,6.669
				C274.666,84.241,266.292,92.614,256,92.614z M256,56.127c-7.333,0-14.023,4.603-16.645,11.454
				c-0.78,2.039-1.176,4.182-1.176,6.368c0,9.827,7.995,17.822,17.822,17.822c9.826,0,17.822-7.994,17.822-17.822
				c0-2.186-0.396-4.328-1.177-6.368C270.023,60.731,263.334,56.127,256,56.127z"/>
		</g>
	</g>
</g>
</svg>
