<?xml version="1.0" encoding="utf-8"?>
<!-- Generator: Adobe Illustrator 17.0.0, SVG Export Plug-In . SVG Version: 6.00 Build 0)  -->
<!DOCTYPE svg PUBLIC "-//W3C//DTD SVG 1.1//EN" "http://www.w3.org/Graphics/SVG/1.1/DTD/svg11.dtd">
<svg version="1.1" id="Capa_1" xmlns="http://www.w3.org/2000/svg" xmlns:xlink="http://www.w3.org/1999/xlink" x="0px" y="0px"
	 width="512px" height="512px" viewBox="0 0 512 512" enable-background="new 0 0 512 512" xml:space="preserve">
<g>
	<g>
		<path fill="#FFFFFF" d="M26.106,241.967c7.333,11.212,16.173,21.951,26.272,31.918c14.902,14.706,32.249,26.094,51.559,33.853
			c18.64,7.489,38.313,11.286,58.469,11.286c15.759,0,31.191-2.312,46.062-6.887l184.23,184.23
			c9.764,9.764,22.746,15.14,36.552,15.14c13.806,0,26.788-5.376,36.551-15.14l30.636-30.635c9.763-9.762,15.14-22.744,15.14-36.552
			c0-13.807-5.377-26.789-15.14-36.55l-184.237-184.24c2.912-9.494,4.919-19.262,5.989-29.189
			c1.637-15.191,1.057-30.506-1.725-45.519c-5.784-31.213-20.742-59.612-43.254-82.124c-15.838-15.838-33.288-28.28-51.865-36.98
			c-19.955-9.347-40.568-14.086-61.263-14.086c-11.912,0-23.784,1.602-35.287,4.764c-8.566,2.354-16.319,6.967-22.421,13.34
			c-5.719,5.973-9.864,13.37-11.985,21.392c-2.119,8.012-2.176,16.478-0.165,24.484c2.149,8.553,6.604,16.392,12.882,22.671
			l62.178,62.179l-15.89,15.89l-62.259-62.259c-9.254-9.254-21.53-14.351-34.569-14.352c-10.31-0.001-20.579,3.336-28.914,9.396
			c-8.889,6.463-15.414,15.886-18.373,26.533c-3.735,13.44-5.329,27.321-4.737,41.259c0.566,13.331,3.133,26.737,7.632,39.844
			C12.449,218.085,18.482,230.31,26.106,241.967z M40.14,134.218c1.66-5.973,6.976-9.435,12.421-9.435
			c3.188,0,6.422,1.188,8.99,3.756l76.875,76.875c3.029,3.029,6.999,4.543,10.968,4.543s7.939-1.514,10.968-4.543l45.122-45.122
			c6.057-6.057,6.057-15.879,0-21.936L128.689,61.56c-6.955-6.955-3.791-18.808,5.693-21.415c8.531-2.345,17.13-3.47,25.699-3.47
			c31.227,0,62.039,14.961,87.544,40.467c35.78,35.78,44.347,88.461,25.718,132.342c-2.031,4.784-0.89,10.327,2.785,14.002
			l194.726,194.727c6.057,6.057,6.057,15.879,0,21.936l-30.635,30.635c-3.029,3.029-6.998,4.543-10.967,4.543
			s-7.939-1.514-10.967-4.543L223.535,276.037c-2.45-2.451-5.732-3.769-9.064-3.769c-1.652,0-3.315,0.323-4.896,0.995
			c-15.037,6.388-31.099,9.581-47.17,9.581c-30.579,0-61.164-11.571-84.615-34.712C44.694,215.47,29.054,174.111,40.14,134.218z"/>
		<path fill="#FFFFFF" d="M429.251,511.929c-13.921,0-27.008-5.42-36.851-15.263l-184.05-184.05
			c-14.822,4.533-30.278,6.831-45.943,6.831c-20.21,0-39.935-3.807-58.627-11.316c-19.365-7.782-36.759-19.202-51.697-33.945
			c-10.121-9.987-18.979-20.749-26.329-31.987c-7.643-11.686-13.692-23.943-17.978-36.429c-4.512-13.145-7.087-26.59-7.654-39.962
			c-0.594-13.982,1.005-27.907,4.752-41.389c2.984-10.737,9.565-20.241,18.531-26.761c8.405-6.111,18.759-9.477,29.158-9.477
			c13.155,0.002,25.537,5.143,34.871,14.477l61.96,61.96l15.293-15.293l-61.88-61.88c-6.333-6.333-10.826-14.24-12.994-22.867
			c-2.029-8.076-1.971-16.614,0.166-24.695c2.14-8.091,6.32-15.552,12.088-21.575c6.155-6.428,13.975-11.082,22.615-13.456
			c11.538-3.171,23.448-4.779,35.399-4.779c20.758,0,41.43,4.752,61.442,14.124c18.622,8.721,36.113,21.191,51.985,37.064
			c22.574,22.574,37.57,51.049,43.371,82.346c2.79,15.055,3.371,30.411,1.73,45.642c-1.059,9.83-3.054,19.594-5.93,29.024
			l184.059,184.06c9.843,9.842,15.264,22.928,15.264,36.849c0,13.921-5.421,27.008-15.264,36.851l-30.636,30.635
			C456.257,506.509,443.171,511.929,429.251,511.929z M208.587,311.659l184.41,184.41c9.683,9.683,22.558,15.015,36.254,15.015
			c13.695,0,26.57-5.333,36.253-15.015l30.636-30.635c9.684-9.683,15.016-22.558,15.016-36.254c0-13.695-5.333-26.569-15.016-36.252
			L311.721,208.51l0.075-0.243c2.9-9.455,4.909-19.249,5.972-29.11c1.633-15.149,1.054-30.422-1.72-45.397
			c-5.769-31.128-20.686-59.45-43.138-81.903c-15.803-15.803-33.213-28.217-51.746-36.896c-19.9-9.319-40.451-14.044-61.084-14.044
			c-11.875,0-23.709,1.598-35.175,4.749c-8.492,2.334-16.178,6.907-22.228,13.225c-5.67,5.921-9.778,13.255-11.882,21.208
			c-2.101,7.942-2.158,16.336-0.164,24.273c2.13,8.479,6.546,16.25,12.771,22.475l62.477,62.477l-16.488,16.488l-62.558-62.558
			c-9.174-9.174-21.345-14.228-34.27-14.229c-10.224,0-20.404,3.308-28.665,9.315c-8.813,6.409-15.281,15.749-18.214,26.304
			c-3.724,13.397-5.312,27.235-4.722,41.128c0.564,13.291,3.124,26.656,7.61,39.725c4.263,12.42,10.281,24.613,17.885,36.24
			c7.317,11.188,16.137,21.903,26.215,31.848c14.859,14.662,32.159,26.023,51.419,33.762c18.591,7.468,38.209,11.255,58.311,11.255
			c15.667,0,31.122-2.311,45.937-6.868L208.587,311.659z M429.251,475.748c-4.256,0-8.257-1.657-11.266-4.666L223.237,276.336
			c-2.316-2.317-5.511-3.645-8.766-3.645c-1.638,0-3.23,0.323-4.731,0.961c-15.015,6.38-30.941,9.615-47.334,9.615
			c-31.992,0-62.147-12.37-84.911-34.834C42.815,214.21,29.052,172.54,39.732,134.106c1.619-5.828,6.774-9.745,12.826-9.745
			c3.491,0,6.789,1.378,9.29,3.879l76.875,76.875c2.85,2.85,6.64,4.42,10.669,4.42s7.819-1.569,10.669-4.42l45.122-45.122
			c5.883-5.883,5.883-15.455,0-21.339L128.39,61.858c-3.366-3.366-4.65-8.124-3.433-12.724c1.221-4.616,4.703-8.129,9.313-9.396
			c8.416-2.313,17.101-3.486,25.812-3.486c30.471,0,61.667,14.415,87.843,40.591c17.376,17.376,28.918,39.284,33.378,63.354
			c4.356,23.508,1.738,47.524-7.572,69.451c-1.963,4.624-0.905,9.938,2.694,13.538l194.726,194.727
			c6.212,6.212,6.212,16.32,0,22.533l-30.635,30.635C437.508,474.091,433.506,475.748,429.251,475.748z M214.472,271.845
			c3.478,0,6.89,1.419,9.363,3.893l194.747,194.746c2.85,2.85,6.638,4.419,10.669,4.419s7.82-1.569,10.669-4.419l30.635-30.635
			c5.883-5.883,5.883-15.455,0-21.339L275.829,223.785c-3.845-3.845-4.974-9.523-2.874-14.466
			c9.244-21.775,11.843-45.623,7.517-68.967c-4.429-23.902-15.89-45.656-33.146-62.911c-26.016-26.016-57-40.343-87.246-40.343
			c-8.635,0-17.243,1.162-25.588,3.456c-4.317,1.186-7.577,4.474-8.72,8.797c-1.139,4.307,0.062,8.76,3.214,11.912l76.795,76.795
			c6.212,6.213,6.212,16.321,0,22.533l-45.122,45.122c-3.01,3.009-7.012,4.667-11.266,4.667c-4.255,0-8.256-1.657-11.266-4.667
			l-76.875-76.875c-2.341-2.341-5.427-3.632-8.691-3.632c-5.67,0-10.498,3.667-12.014,9.126
			c-10.597,38.129,3.086,79.499,37.541,113.499c22.605,22.307,52.55,34.591,84.318,34.591c16.28,0,32.094-3.212,47.004-9.547
			C211.017,272.192,212.72,271.845,214.472,271.845z"/>
	</g>
	<g>
		<circle fill="#FFFFFF" cx="425.258" cy="425.189" r="18.58"/>
		<path fill="#FFFFFF" d="M425.258,444.191c-10.477,0-19.001-8.525-19.001-19.003c0-10.477,8.524-19.001,19.001-19.001
			c10.477,0,19.001,8.524,19.001,19.001C444.259,435.666,435.736,444.191,425.258,444.191z M425.258,407.032
			c-10.011,0-18.156,8.145-18.156,18.156c0,10.012,8.145,18.158,18.156,18.158c10.011,0,18.156-8.146,18.156-18.158
			C443.415,415.176,435.271,407.032,425.258,407.032z"/>
	</g>
</g>
</svg>
