<?xml version="1.0" encoding="utf-8"?>
<!-- Generator: Adobe Illustrator 17.0.0, SVG Export Plug-In . SVG Version: 6.00 Build 0)  -->
<!DOCTYPE svg PUBLIC "-//W3C//DTD SVG 1.1//EN" "http://www.w3.org/Graphics/SVG/1.1/DTD/svg11.dtd">
<svg version="1.1" id="Capa_1" xmlns="http://www.w3.org/2000/svg" xmlns:xlink="http://www.w3.org/1999/xlink" x="0px" y="0px"
	 width="512px" height="512px" viewBox="0 0 512 512" enable-background="new 0 0 512 512" xml:space="preserve">
<g>
	<path fill="#FFFFFF" d="M481.388,296.47c-8.833-8.263-20.354-12.816-32.442-12.826c-12.573-0.01-24.432,4.911-33.391,13.857
		l-58.112,58.023c-19.55,19.52-19.574,51.308-0.054,70.858l58.023,58.112c8.945,8.958,20.797,13.897,33.37,13.907
		c12.088,0.009,23.617-4.529,32.462-12.776c4.653-4.339,8.32-9.477,10.899-15.272c2.7-6.067,4.071-12.546,4.076-19.258
		l0.091-120.073c0.005-6.712-1.357-13.193-4.048-19.266C489.693,305.958,486.035,300.815,481.388,296.47z M460.036,451.067
		c-0.005,6.713-5.5,11.154-11.225,11.15c-2.736-0.002-5.525-1.019-7.792-3.29l-58.023-58.112
		c-5.433-5.441-5.426-14.255,0.015-19.686l58.112-58.023c2.271-2.269,5.06-3.281,7.797-3.279
		c5.725,0.004,11.213,4.455,11.208,11.167L460.036,451.067L460.036,451.067z"/>
	<path fill="#FFFFFF" d="M448.946,283.222c12.196,0.009,23.821,4.605,32.73,12.94c4.687,4.384,8.378,9.572,10.973,15.423
		c2.715,6.127,4.089,12.666,4.084,19.438l-0.091,120.073c-0.005,6.77-1.389,13.308-4.113,19.429
		c-2.602,5.848-6.302,11.032-10.996,15.408c-8.924,8.322-20.555,12.899-32.751,12.89c-12.686-0.01-24.643-4.993-33.668-14.032
		l-58.023-58.112c-19.685-19.716-19.661-51.771,0.054-71.456l58.112-58.023C424.295,288.177,436.259,283.212,448.946,283.222z
		 M448.783,497.979c11.981,0.009,23.407-4.488,32.174-12.663c4.611-4.3,8.245-9.392,10.801-15.135
		c2.676-6.013,4.035-12.435,4.04-19.086l0.091-120.073c0.005-6.652-1.345-13.076-4.012-19.095
		c-2.547-5.746-6.174-10.843-10.777-15.149c-8.753-8.188-20.173-12.702-32.154-12.711c-12.461-0.009-24.214,4.868-33.092,13.733
		l-58.112,58.023c-19.385,19.357-19.409,50.875-0.053,70.261l58.023,58.112C424.578,493.075,436.323,497.97,448.783,497.979z
		 M448.919,319.405c7.286,0.006,11.634,5.898,11.63,11.589l-0.091,120.073c-0.004,5.693-4.362,11.577-11.648,11.572
		c-3.021-0.002-5.895-1.215-8.09-3.414l-58.023-58.112c-2.707-2.712-4.196-6.314-4.193-10.145c0.003-3.831,1.497-7.432,4.209-10.138
		l58.112-58.023C443.022,320.611,445.897,319.403,448.919,319.405z M448.811,461.796c5.306,0.004,10.797-4.008,10.802-10.728
		l0.091-120.073c0.005-6.72-5.48-10.74-10.786-10.744c-2.836-0.002-5.429,1.089-7.498,3.155l-58.112,58.023
		c-2.552,2.548-3.958,5.936-3.961,9.541c-0.003,3.606,1.398,6.997,3.946,9.548l58.023,58.112
		C443.384,460.699,445.975,461.794,448.811,461.796z"/>
</g>
<g>
	<path fill="#FFFFFF" d="M329.577,57.529c0-27.077-22.029-49.106-49.107-49.106H57.753c-27.077,0-49.106,22.029-49.106,49.106
		v54.689c0,27.078,22.029,49.107,49.106,49.107H280.47c27.078,0,49.107-22.029,49.107-49.107V57.529z M293.394,112.218
		c0,7.136-5.787,12.924-12.924,12.924H57.753c-7.137,0-12.923-5.787-12.923-12.924V57.529c0-7.137,5.786-12.923,12.923-12.923
		h222.717c7.136,0,12.924,5.786,12.924,12.923V112.218z"/>
	<path fill="#FFFFFF" d="M280.471,161.747H57.753c-27.31,0-49.528-22.219-49.528-49.529V57.528C8.225,30.219,30.443,8,57.753,8
		h222.717C307.781,8,330,30.219,330,57.528v54.689C329.999,139.529,307.781,161.747,280.471,161.747z M57.753,8.846
		C30.909,8.846,9.07,30.686,9.07,57.53v54.689c0,26.844,21.839,48.685,48.684,48.685h222.717c26.845,0,48.685-21.839,48.685-48.685
		V57.53c0-26.845-21.839-48.684-48.685-48.684L57.753,8.846L57.753,8.846z M280.471,125.563H57.753
		c-7.358,0-13.345-5.987-13.345-13.346V57.528c0-7.358,5.987-13.345,13.345-13.345h222.717c7.359,0,13.346,5.987,13.346,13.345
		v54.689C293.817,119.577,287.83,125.563,280.471,125.563z M57.753,45.029c-6.893,0-12.5,5.607-12.5,12.5v54.689
		c0,6.893,5.607,12.501,12.5,12.501h222.717c6.893,0,12.501-5.608,12.501-12.501V57.529c0-6.893-5.608-12.5-12.501-12.5H57.753z"/>
</g>
<g>
	<path fill="#FFFFFF" d="M329.577,291.347v-54.689c0-27.078-22.029-49.107-49.107-49.107H57.753
		c-27.077,0-49.106,22.029-49.106,49.107v54.689c0,27.078,22.029,49.105,49.106,49.105H280.47
		C307.548,340.451,329.577,318.423,329.577,291.347z M293.394,291.347c0,7.136-5.787,12.922-12.924,12.922H57.753
		c-7.137,0-12.923-5.786-12.923-12.922v-54.689c0-7.138,5.786-12.924,12.923-12.924h222.717c7.136,0,12.924,5.786,12.924,12.924
		V291.347z"/>
	<path fill="#FFFFFF" d="M280.471,340.873H57.753c-27.31,0-49.528-22.219-49.528-49.528v-54.689
		c0-27.311,22.219-49.529,49.528-49.529h222.717c27.311,0,49.529,22.219,49.529,49.529v54.689
		C329.999,318.656,307.781,340.873,280.471,340.873z M57.753,187.973c-26.845,0-48.684,21.839-48.684,48.685v54.689
		c0,26.844,21.839,48.683,48.684,48.683h222.717c26.845,0,48.685-21.838,48.685-48.683v-54.689
		c0-26.844-21.839-48.685-48.685-48.685H57.753z M280.471,304.691H57.753c-7.358,0-13.345-5.986-13.345-13.344v-54.689
		c0-7.359,5.987-13.346,13.345-13.346h222.717c7.359,0,13.346,5.987,13.346,13.346v54.689
		C293.817,298.705,287.83,304.691,280.471,304.691z M57.753,224.156c-6.893,0-12.5,5.608-12.5,12.501v54.689
		c0,6.892,5.607,12.5,12.5,12.5h222.717c6.893,0,12.501-5.607,12.501-12.5v-54.689c0-6.893-5.608-12.501-12.501-12.501
		L57.753,224.156L57.753,224.156z"/>
</g>
</svg>
