<?xml version="1.0" encoding="utf-8"?>
<!-- Generator: Adobe Illustrator 17.0.0, SVG Export Plug-In . SVG Version: 6.00 Build 0)  -->
<!DOCTYPE svg PUBLIC "-//W3C//DTD SVG 1.1//EN" "http://www.w3.org/Graphics/SVG/1.1/DTD/svg11.dtd">
<svg version="1.1" id="Capa_1" xmlns="http://www.w3.org/2000/svg" xmlns:xlink="http://www.w3.org/1999/xlink" x="0px" y="0px"
	 width="512px" height="512px" viewBox="0 0 512 512" enable-background="new 0 0 512 512" xml:space="preserve">
<g>
	<path fill="#FFFFFF" d="M30.715,212.577c8.839,8.256,20.364,12.801,32.452,12.801c12.573,0,24.428-4.929,33.38-13.882
		l58.068-58.068c19.535-19.535,19.535-51.322,0-70.858L96.547,24.503c-8.952-8.951-20.807-13.881-33.38-13.881
		c-12.088,0-23.614,4.547-32.452,12.801c-4.65,4.342-8.313,9.483-10.887,15.28c-2.695,6.069-4.062,12.549-4.062,19.261v120.073
		c0,6.712,1.367,13.192,4.063,19.263C22.403,203.096,26.065,208.236,30.715,212.577z M51.95,57.964
		c0-6.713,5.492-11.158,11.217-11.158c2.736,0,5.525,1.015,7.794,3.284l58.068,58.068c5.437,5.437,5.437,14.251,0,19.686
		L70.96,185.911c-2.269,2.27-5.058,3.285-7.794,3.285c-5.725,0-11.217-4.446-11.217-11.158L51.95,57.964L51.95,57.964z"/>
	<path fill="#FFFFFF" d="M63.167,225.802c-12.196,0-23.824-4.587-32.74-12.915c-4.69-4.38-8.385-9.565-10.984-15.414
		c-2.72-6.125-4.099-12.663-4.099-19.435V57.964c0-6.77,1.378-13.309,4.098-19.432c2.598-5.85,6.293-11.037,10.984-15.417
		C39.344,14.786,50.972,10.2,63.167,10.2c12.686,0,24.647,4.974,33.678,14.006l58.068,58.068c19.7,19.701,19.7,51.756,0,71.456
		l-58.068,58.068C87.815,220.828,75.854,225.802,63.167,225.802z M63.167,11.044c-11.981,0-23.404,4.506-32.164,12.687
		c-4.608,4.303-8.238,9.398-10.789,15.143c-2.672,6.015-4.025,12.438-4.025,19.089v120.073c0,6.652,1.355,13.075,4.026,19.092
		c2.552,5.744,6.182,10.838,10.788,15.141c8.76,8.182,20.182,12.687,32.164,12.687c12.461,0,24.21-4.886,33.081-13.758
		l58.068-58.068c19.37-19.371,19.37-50.89,0-70.261L96.248,24.802C87.376,15.93,75.628,11.044,63.167,11.044z M63.167,189.618
		c-7.286,0-11.639-5.889-11.639-11.581V57.964c0-5.693,4.353-11.581,11.639-11.581c3.021,0,5.895,1.21,8.092,3.408l58.068,58.068
		c2.71,2.71,4.201,6.311,4.201,10.142s-1.492,7.433-4.201,10.141L71.259,186.21C69.063,188.408,66.189,189.618,63.167,189.618z
		 M63.167,47.227c-5.306,0-10.794,4.016-10.794,10.736v120.073c0,6.72,5.488,10.736,10.794,10.736c2.836,0,5.428-1.093,7.496-3.161
		l58.068-58.068c2.55-2.55,3.954-5.939,3.954-9.544c0-3.606-1.404-6.996-3.954-9.545L70.663,50.388
		C68.594,48.32,66.003,47.227,63.167,47.227z"/>
</g>
<g>
	<path fill="#FFFFFF" d="M503.234,220.656c0-27.077-22.029-49.106-49.107-49.106H231.41c-27.077,0-49.106,22.029-49.106,49.106
		v54.689c0,27.078,22.029,49.107,49.106,49.107h222.717c27.078,0,49.107-22.029,49.107-49.107V220.656z M467.051,275.345
		c0,7.136-5.787,12.923-12.924,12.923H231.41c-7.137,0-12.923-5.787-12.923-12.923v-54.689c0-7.137,5.786-12.923,12.923-12.923
		h222.717c7.136,0,12.924,5.786,12.924,12.923L467.051,275.345L467.051,275.345z"/>
	<path fill="#FFFFFF" d="M454.128,324.873H231.41c-27.31,0-49.528-22.219-49.528-49.529v-54.689
		c0-27.31,22.219-49.528,49.528-49.528h222.717c27.311,0,49.529,22.219,49.529,49.528v54.689
		C503.656,302.656,481.439,324.873,454.128,324.873z M231.41,171.973c-26.845,0-48.684,21.839-48.684,48.684v54.689
		c0,26.844,21.839,48.685,48.684,48.685h222.717c26.845,0,48.685-21.839,48.685-48.685v-54.689
		c0-26.845-21.839-48.684-48.685-48.684L231.41,171.973L231.41,171.973z M454.128,288.69H231.41
		c-7.358,0-13.345-5.987-13.345-13.346v-54.689c0-7.358,5.987-13.345,13.345-13.345h222.717c7.359,0,13.346,5.987,13.346,13.345
		v54.689C467.474,282.704,461.487,288.69,454.128,288.69z M231.41,208.156c-6.893,0-12.5,5.607-12.5,12.5v54.689
		c0,6.893,5.607,12.501,12.5,12.501h222.717c6.893,0,12.501-5.608,12.501-12.501v-54.689c0-6.893-5.608-12.5-12.501-12.5H231.41z"/>
</g>
<g>
	<path fill="#FFFFFF" d="M503.234,454.473v-54.689c0-27.078-22.029-49.107-49.107-49.107H231.41
		c-27.077,0-49.106,22.029-49.106,49.107v54.689c0,27.078,22.029,49.105,49.106,49.105h222.717
		C481.205,503.578,503.234,481.55,503.234,454.473z M467.051,454.473c0,7.136-5.787,12.922-12.924,12.922H231.41
		c-7.137,0-12.923-5.786-12.923-12.922v-54.689c0-7.138,5.786-12.923,12.923-12.923h222.717c7.136,0,12.924,5.786,12.924,12.923
		L467.051,454.473L467.051,454.473z"/>
	<path fill="#FFFFFF" d="M454.128,504H231.41c-27.31,0-49.528-22.219-49.528-49.528v-54.689c0-27.311,22.219-49.529,49.528-49.529
		h222.717c27.311,0,49.529,22.219,49.529,49.529v54.689C503.656,481.782,481.439,504,454.128,504z M231.41,351.1
		c-26.845,0-48.684,21.839-48.684,48.685v54.689c0,26.844,21.839,48.683,48.684,48.683h222.717
		c26.845,0,48.685-21.838,48.685-48.683v-54.689c0-26.844-21.839-48.685-48.685-48.685H231.41z M454.128,467.817H231.41
		c-7.358,0-13.345-5.986-13.345-13.344v-54.689c0-7.359,5.987-13.346,13.345-13.346h222.717c7.359,0,13.346,5.987,13.346,13.346
		v54.689C467.474,461.832,461.487,467.817,454.128,467.817z M231.41,387.283c-6.893,0-12.5,5.608-12.5,12.501v54.689
		c0,6.892,5.607,12.5,12.5,12.5h222.717c6.893,0,12.501-5.607,12.501-12.5v-54.689c0-6.893-5.608-12.501-12.501-12.501H231.41
		L231.41,387.283z"/>
</g>
</svg>
