<?xml version="1.0" encoding="utf-8"?>
<!-- Generator: Adobe Illustrator 17.0.0, SVG Export Plug-In . SVG Version: 6.00 Build 0)  -->
<!DOCTYPE svg PUBLIC "-//W3C//DTD SVG 1.1//EN" "http://www.w3.org/Graphics/SVG/1.1/DTD/svg11.dtd">
<svg version="1.1" id="Capa_1" xmlns="http://www.w3.org/2000/svg" xmlns:xlink="http://www.w3.org/1999/xlink" x="0px" y="0px"
	 width="512px" height="512px" viewBox="0 0 512 512" enable-background="new 0 0 512 512" xml:space="preserve">
<g>
	<g>
		<path fill="#FFFFFF" d="M392.66,127.77H119.34c-14.158,0-27.775,5.977-37.358,16.399c-9.584,10.421-14.4,24.49-13.217,38.598
			l23.68,282.288c1.067,12.716,6.827,24.477,16.22,33.115c9.392,8.639,21.594,13.395,34.354,13.395h225.963
			c12.761,0,24.961-4.758,34.354-13.395c9.393-8.638,15.155-20.399,16.22-33.116l23.679-282.288
			c1.183-14.107-3.634-28.176-13.217-38.597C420.436,133.747,406.818,127.77,392.66,127.77z M406.127,179.653l-23.679,282.289
			c-0.588,7.002-6.441,12.384-13.467,12.384H143.02c-7.026,0-12.88-5.383-13.467-12.384l-23.68-282.289
			c-0.662-7.882,5.557-14.644,13.467-14.644h273.32C400.57,165.009,406.788,171.771,406.127,179.653z"/>
		<path fill="#FFFFFF" d="M368.982,512H143.019c-12.871,0-25.176-4.798-34.649-13.51c-9.474-8.712-15.284-20.574-16.36-33.399
			l-23.68-282.288c-1.194-14.23,3.665-28.419,13.33-38.929c9.665-10.511,23.399-16.539,37.678-16.539h273.32
			c14.281,0,28.014,6.028,37.678,16.539c9.665,10.509,14.524,24.698,13.33,38.927l-23.679,282.288
			c-1.075,12.826-6.885,24.687-16.359,33.4C394.156,507.202,381.85,512,368.982,512z M119.34,128.204
			c-14.037,0-27.537,5.926-37.038,16.259c-9.501,10.331-14.278,24.279-13.104,38.268l23.68,282.288
			c1.057,12.608,6.769,24.267,16.081,32.832c9.312,8.565,21.408,13.281,34.06,13.281h225.963c12.651,0,24.747-4.717,34.06-13.281
			c9.314-8.565,15.025-20.224,16.082-32.833l23.679-282.288c1.174-13.987-3.603-27.936-13.104-38.266
			c-9.5-10.332-23-16.259-37.038-16.259L119.34,128.204L119.34,128.204z M368.982,474.761H143.02c-7.193,0-13.299-5.615-13.9-12.783
			l-23.68-282.289c-0.325-3.878,0.999-7.744,3.633-10.608c2.634-2.864,6.376-4.507,10.267-4.507h273.32
			c3.892,0,7.633,1.642,10.267,4.506c2.634,2.863,3.959,6.731,3.634,10.608l-23.679,282.289
			C382.28,469.146,376.174,474.761,368.982,474.761z M119.34,165.444c-3.648,0-7.158,1.54-9.627,4.225
			c-2.47,2.685-3.711,6.311-3.406,9.946l23.68,282.289c0.563,6.721,6.288,11.986,13.034,11.986h225.962
			c6.745,0,12.47-5.265,13.034-11.986l23.679-282.289c0.305-3.636-0.937-7.262-3.408-9.947c-2.47-2.685-5.978-4.225-9.626-4.225
			L119.34,165.444L119.34,165.444z"/>
	</g>
	<g>
		<path fill="#FFFFFF" d="M77.618,107.645h356.763c10.283,0,18.62-8.336,18.62-18.62s-8.336-18.62-18.62-18.62h-67.628v-0.84V51.187
			c0-27.985-22.767-50.753-50.752-50.753H196c-27.985,0-50.753,22.768-50.753,50.753v18.379v0.84H77.618
			c-10.283,0-18.62,8.336-18.62,18.62S67.335,107.645,77.618,107.645z M182.485,51.187c0-7.463,6.05-13.514,13.514-13.514h120.003
			c7.462,0,13.513,6.05,13.513,13.514v18.379H182.485V51.187z"/>
		<path fill="#FFFFFF" d="M434.382,108.08H77.618c-10.507,0-19.054-8.547-19.054-19.054c0-10.506,8.547-19.054,19.054-19.054h67.193
			V51.187C144.812,22.963,167.774,0,196,0h120.003c28.224,0,51.187,22.963,51.187,51.187v18.784h67.193
			c10.507,0,19.054,8.547,19.054,19.054C453.436,99.532,444.888,108.08,434.382,108.08z M77.618,70.841
			c-10.027,0-18.185,8.158-18.185,18.185c0,10.028,8.158,18.185,18.185,18.185h356.763c10.027,0,18.185-8.158,18.185-18.185
			s-8.158-18.185-18.185-18.185h-68.062V51.187c0-27.745-22.572-50.318-50.317-50.318H196c-27.745,0-50.318,22.573-50.318,50.318
			v19.653H77.618z M329.949,70H182.051V51.187c0-7.691,6.257-13.948,13.948-13.948h120.003c7.691,0,13.947,6.257,13.947,13.948V70
			L329.949,70z M182.92,69.131h146.16V51.187c0-7.211-5.867-13.079-13.078-13.079H196c-7.212,0-13.079,5.868-13.079,13.079
			L182.92,69.131L182.92,69.131z"/>
	</g>
	<g>
		<path fill="#FFFFFF" d="M190.253,236.642c-0.678-10.262-9.553-18.028-19.806-17.351c-10.262,0.678-18.03,9.546-17.351,19.807
			l10.812,163.594c0.65,9.843,8.837,17.392,18.561,17.392c0.413,0,0.828-0.014,1.247-0.041c10.261-0.678,18.029-9.545,17.351-19.807
			L190.253,236.642z"/>
		<path fill="#FFFFFF" d="M182.467,420.52c-9.991,0-18.335-7.817-18.994-17.798l-10.812-163.594
			c-0.336-5.079,1.327-9.983,4.68-13.813c3.354-3.829,7.998-6.121,13.076-6.458c10.552-0.687,19.581,7.356,20.269,17.756
			l10.812,163.594c0.693,10.484-7.272,19.577-17.756,20.27C183.315,420.506,182.89,420.52,182.467,420.52z M171.689,219.685
			c-0.402,0-0.807,0.014-1.214,0.04c-4.847,0.321-9.279,2.509-12.48,6.162c-3.201,3.654-4.787,8.335-4.466,13.182l10.812,163.594
			c0.655,9.929,9.293,17.599,19.345,16.946c10.005-0.661,17.607-9.339,16.946-19.345L189.82,236.671
			C189.191,227.146,181.227,219.685,171.689,219.685z"/>
	</g>
	<g>
		<path fill="#FFFFFF" d="M256,219.251c-10.283,0-18.62,8.336-18.62,18.62v163.594c0,10.283,8.336,18.62,18.62,18.62
			c10.284,0,18.62-8.336,18.62-18.62V237.871C274.62,227.587,266.284,219.251,256,219.251z"/>
		<path fill="#FFFFFF" d="M256,420.519c-10.507,0-19.054-8.547-19.054-19.054V237.871c0-10.507,8.547-19.054,19.054-19.054
			s19.054,8.547,19.054,19.054v163.594C275.055,411.971,266.508,420.519,256,420.519z M256,219.686
			c-10.027,0-18.185,8.158-18.185,18.185v163.594c0,10.027,8.158,18.185,18.185,18.185c10.028,0,18.185-8.158,18.185-18.185V237.871
			C274.186,227.843,266.028,219.686,256,219.686z"/>
	</g>
	<g>
		<path fill="#FFFFFF" d="M341.554,219.291c-10.255-0.676-19.129,7.09-19.806,17.351l-10.812,163.595
			c-0.677,10.262,7.09,19.129,17.351,19.807c0.419,0.027,0.834,0.041,1.247,0.041c9.724,0,17.91-7.55,18.562-17.392l10.81-163.594
			C359.584,228.837,351.815,219.969,341.554,219.291z"/>
		<path fill="#FFFFFF" d="M329.534,420.52c-0.422,0-0.846-0.014-1.274-0.042c-10.484-0.693-18.449-9.786-17.757-20.27
			l10.812-163.594c0.687-10.401,9.724-18.448,20.269-17.756c5.079,0.336,9.723,2.629,13.076,6.457
			c3.354,3.828,5.017,8.734,4.68,13.813l-10.81,163.594C347.868,412.701,339.524,420.52,329.534,420.52z M340.311,219.685
			c-9.538,0-17.501,7.461-18.129,16.986L311.37,400.266c-0.661,10.005,6.941,18.683,16.946,19.345
			c10.088,0.652,18.688-7.018,19.345-16.946l10.81-163.594c0.321-4.847-1.265-9.528-4.466-13.182
			c-3.202-3.654-7.633-5.842-12.48-6.162C341.118,219.699,340.713,219.685,340.311,219.685z"/>
	</g>
</g>
</svg>
