<?xml version="1.0" encoding="utf-8"?>
<!-- Generator: Adobe Illustrator 17.0.0, SVG Export Plug-In . SVG Version: 6.00 Build 0)  -->
<!DOCTYPE svg PUBLIC "-//W3C//DTD SVG 1.1//EN" "http://www.w3.org/Graphics/SVG/1.1/DTD/svg11.dtd">
<svg version="1.1" id="Capa_1" xmlns="http://www.w3.org/2000/svg" xmlns:xlink="http://www.w3.org/1999/xlink" x="0px" y="0px"
	 width="512px" height="512px" viewBox="0 0 512 512" enable-background="new 0 0 512 512" xml:space="preserve">
<g>
	<g>
		<g>
			<path fill="#FFFFFF" d="M460.787,0.442H230.451c-10.458,0-18.935,8.477-18.935,18.935s8.477,18.935,18.935,18.935H456.68v435.377
				H231.164c-10.458,0-18.935,8.477-18.935,18.935s8.477,18.935,18.935,18.935h229.622c18.618,0,33.763-15.146,33.763-33.763V34.205
				C494.55,15.588,479.404,0.442,460.787,0.442z"/>
			<path fill="#FFFFFF" d="M460.787,512H231.164c-10.685,0-19.377-8.692-19.377-19.377c0-10.685,8.692-19.377,19.377-19.377h225.074
				V38.754H230.451c-10.685,0-19.377-8.692-19.377-19.377S219.767,0,230.451,0h230.336c18.861,0,34.205,15.344,34.205,34.205v443.59
				C494.992,496.656,479.648,512,460.787,512z M231.164,474.131c-10.197,0-18.493,8.296-18.493,18.493
				c0,10.197,8.296,18.493,18.493,18.493h229.622c18.374,0,33.321-14.947,33.321-33.321V34.205
				c0.001-18.373-14.947-33.321-33.32-33.321H230.451c-10.197,0-18.493,8.296-18.493,18.493s8.296,18.493,18.493,18.493h226.671
				v436.261H231.164z"/>
		</g>
		<g>
			<path fill="#FFFFFF" d="M17.45,200.401v108.065c0,27.119,22.063,49.183,49.182,49.183h123.354v17.455
				c0,6.956,1.415,13.677,4.206,19.976c2.663,6.009,6.45,11.343,11.258,15.853c9.194,8.627,21.195,13.378,33.788,13.378
				c12.232,0,23.978-4.571,33.075-12.869l132.289-120.672c10.191-9.297,16.038-22.541,16.038-36.335
				c0-13.796-5.845-27.039-16.037-36.337L272.315,97.426c-9.097-8.299-20.843-12.869-33.074-12.869
				c-12.595,0-24.594,4.751-33.789,13.377c-4.808,4.51-8.596,9.844-11.258,15.854c-2.791,6.298-4.206,13.019-4.206,19.974v17.456
				H66.632C39.513,151.218,17.45,173.282,17.45,200.401z M216.544,189.089c6.248,0,11.312-5.065,11.312-11.313v-44.013
				c0-6.78,5.553-11.335,11.383-11.335c2.622,0,5.299,0.922,7.554,2.977l132.289,120.671c4.918,4.486,4.918,12.229,0,16.715
				L246.794,383.462c-2.254,2.056-4.932,2.977-7.554,2.977c-5.829,0-11.383-4.555-11.383-11.335v-44.013
				c0-6.248-5.064-11.313-11.312-11.313H66.632c-6.248,0-11.312-5.064-11.312-11.313V200.401c0-6.248,5.064-11.313,11.312-11.313
				L216.544,189.089L216.544,189.089z"/>
			<path fill="#FFFFFF" d="M239.24,424.753c-12.706,0-24.814-4.794-34.09-13.499c-4.85-4.55-8.673-9.932-11.36-15.997
				c-2.816-6.355-4.244-13.135-4.244-20.154v-17.013H66.632c-27.363,0-49.624-22.262-49.624-49.625V200.401
				c0-27.364,22.261-49.625,49.624-49.625h122.912v-17.014c0-7.017,1.428-13.798,4.244-20.153
				c2.686-6.064,6.509-11.447,11.36-15.998c9.277-8.703,21.384-13.497,34.091-13.497c12.341,0,24.194,4.611,33.372,12.984
				l132.29,120.672c10.283,9.382,16.181,22.745,16.181,36.664c0,13.919-5.898,27.282-16.182,36.662L272.613,411.769
				C263.434,420.141,251.581,424.753,239.24,424.753z M66.632,151.66c-26.876,0-48.74,21.865-48.74,48.741v108.065
				c0,26.876,21.865,48.741,48.74,48.741h123.796v17.897c0,6.894,1.402,13.554,4.168,19.797c2.639,5.955,6.392,11.241,11.157,15.709
				c9.112,8.55,21.004,13.258,33.485,13.258c12.12,0,23.762-4.53,32.777-12.753l132.289-120.672
				c10.1-9.214,15.893-22.339,15.893-36.009c0-13.671-5.793-26.796-15.893-36.011L272.017,97.753
				C263.003,89.529,251.361,85,239.241,85c-12.482,0-24.374,4.708-33.485,13.257c-4.765,4.469-8.519,9.756-11.158,15.711
				c-2.765,6.242-4.168,12.901-4.168,19.795v17.898H66.632V151.66z M239.241,386.881c-5.688,0-11.825-4.503-11.825-11.776v-44.013
				c0-5.994-4.877-10.871-10.87-10.871H66.632c-6.481,0-11.754-5.274-11.754-11.755V200.401c0-6.482,5.273-11.755,11.754-11.755
				h149.911h0.001c2.903,0,5.633-1.131,7.685-3.183c2.053-2.054,3.184-4.783,3.184-7.687v-44.013
				c0-7.274,6.138-11.777,11.825-11.777c2.917,0,5.633,1.069,7.852,3.092l132.291,120.672c2.436,2.222,3.833,5.387,3.833,8.684
				s-1.397,6.462-3.833,8.684L247.092,383.788C244.875,385.812,242.159,386.881,239.241,386.881z M66.632,189.53
				c-5.994,0-10.87,4.877-10.87,10.871v108.065c0,5.994,4.877,10.871,10.87,10.871h149.911c6.481,0,11.754,5.274,11.754,11.755
				v44.013c0,6.728,5.68,10.892,10.941,10.892c2.694,0,5.203-0.989,7.256-2.861l132.289-120.672
				c2.252-2.055,3.545-4.982,3.545-8.031c0-3.049-1.292-5.977-3.545-8.031L246.495,125.732c-2.054-1.872-4.562-2.861-7.256-2.861
				c-6.849,0-10.941,5.539-10.941,10.893v44.013c0,6.482-5.273,11.755-11.754,11.755L66.632,189.53z"/>
		</g>
	</g>
</g>
</svg>
